<svg width="12" height="12" viewBox="0 0 12 12" fill="none" xmlns="http://www.w3.org/2000/svg">
<g clip-path="url(#clip0_1_1150)">
<path d="M2.89613 6.3293L8.44648 11.8643C8.62834 12.0455 8.92276 12.0452 9.1043 11.8634C9.28571 11.6815 9.28524 11.3869 9.10337 11.2055L3.88338 5.99998L9.10355 0.794439C9.2854 0.613034 9.28587 0.318636 9.10449 0.136762C9.01348 0.0455906 8.89426 4.32196e-06 8.77503 4.33238e-06C8.65611 4.34278e-06 8.53735 0.0452857 8.44651 0.135824L2.89613 5.67069C2.80854 5.75783 2.7594 5.87642 2.7594 5.99998C2.7594 6.12354 2.80869 6.242 2.89613 6.3293Z" fill="white"/>
</g>
<defs>
<clipPath id="clip0_1_1150">
<rect width="12" height="12" fill="white" transform="translate(12 12) rotate(180)"/>
</clipPath>
</defs>
</svg>
