<svg width="20" height="20" viewBox="0 0 20 20" fill="none" xmlns="http://www.w3.org/2000/svg">
<g clip-path="url(#clip0_1_605)">
<path d="M20 3.74989L20.1 3.74984V3.74979V3.74967L20.1 3.74938L20.1 3.74861L20.1 3.74636L20.0998 3.73912C20.0996 3.73315 20.0992 3.7249 20.0984 3.71488C20.0969 3.69498 20.0938 3.66742 20.0876 3.63653C20.0761 3.57858 20.0503 3.4921 19.9874 3.42918L19.9844 3.42618C19.9004 3.3422 19.7915 3.23321 19.5834 3.23321H3.8326L3.43312 1.15598C3.42823 1.02968 3.33688 0.924446 3.24748 0.857404C3.15276 0.786373 3.02801 0.733252 2.91664 0.733252H0.416656C0.416651 0.733252 0.416646 0.733252 0.416641 0.733252C0.268931 0.733232 0.138065 0.782907 0.0438743 0.877097C-0.0503181 0.971289 -0.1 1.10217 -0.1 1.24989C-0.1 1.39762 -0.0503175 1.5285 0.0438792 1.62269C0.138076 1.71689 0.268953 1.76657 0.41668 1.76657H2.50111L4.48507 11.8517C4.4851 11.8518 4.48513 11.852 4.48515 11.8521C4.74447 13.2339 6.0368 14.2666 7.41668 14.2666H17C17.1477 14.2666 17.2786 14.2169 17.3728 14.1227C17.467 14.0285 17.5167 13.8976 17.5167 13.7499C17.5167 13.6022 17.467 13.4713 17.3728 13.3771C17.2786 13.2829 17.1477 13.2332 17 13.2332H7.5C6.91491 13.2332 6.33451 12.9638 6.00155 12.4944L18.0074 10.8498C18.1204 10.8475 18.225 10.7913 18.2999 10.7164C18.3735 10.6428 18.4289 10.5406 18.4331 10.4299L20.097 3.77415L20.1 3.7622V3.74989H20ZM18.8732 4.18321L17.5021 9.90962L5.49638 11.472L4.03862 4.18321H18.8732Z" fill="#64B3FB" stroke="#64B3FB" stroke-width="0.2"/>
<path d="M7.08332 14.9C5.86145 14.9 4.9 15.8615 4.9 17.0833C4.9 18.3052 5.86145 19.2666 7.08332 19.2666C8.30523 19.2666 9.26664 18.3052 9.26664 17.0833C9.26668 15.8615 8.30523 14.9 7.08332 14.9ZM7.08332 18.2333C6.47187 18.2333 5.93332 17.6947 5.93332 17.0833C5.93332 16.4719 6.47187 15.9333 7.08332 15.9333C7.69477 15.9333 8.23332 16.4719 8.23332 17.0833C8.23332 17.6947 7.69477 18.2333 7.08332 18.2333Z" fill="#64B3FB" stroke="#64B3FB" stroke-width="0.2"/>
<path d="M15.4167 14.9C14.1948 14.9 13.2334 15.8615 13.2334 17.0833C13.2334 18.3052 14.1948 19.2666 15.4167 19.2666C16.6386 19.2666 17.6 18.3052 17.6 17.0833C17.6 15.8615 16.6386 14.9 15.4167 14.9ZM15.4167 18.2333C14.8052 18.2333 14.2667 17.6947 14.2667 17.0833C14.2667 16.4719 14.8052 15.9333 15.4167 15.9333C16.0281 15.9333 16.5667 16.4719 16.5667 17.0833C16.5667 17.6947 16.0281 18.2333 15.4167 18.2333Z" fill="#64B3FB" stroke="#64B3FB" stroke-width="0.2"/>
</g>
<rect x="0.1" y="0.1" width="19.8" height="19.8" stroke="white" stroke-width="0.2"/>
<defs>
<clipPath id="clip0_1_605">
<rect width="20" height="20" fill="white"/>
</clipPath>
</defs>
</svg>
