<svg width="14" height="14" viewBox="0 0 14 14" fill="none" xmlns="http://www.w3.org/2000/svg">
<g clip-path="url(#clip0_23_275)">
<path d="M13.069 7.18138C13.0127 7.06613 13.0127 6.93395 13.069 6.81872L13.5912 5.75054C13.8819 5.15579 13.6516 4.44691 13.0668 4.13664L12.0165 3.57938C11.9032 3.51928 11.8255 3.41231 11.8034 3.28601L11.598 2.11491C11.4836 1.46288 10.8804 1.02473 10.2251 1.11745L9.04787 1.28397C8.9208 1.30191 8.79516 1.26106 8.70298 1.17189L7.84847 0.345237C7.37266 -0.115065 6.62727 -0.115093 6.1515 0.345237L5.29695 1.17197C5.20475 1.26117 5.07911 1.30193 4.95207 1.28405L3.77484 1.11753C3.11928 1.02475 2.51636 1.46296 2.40198 2.115L2.19657 3.28604C2.1744 3.41237 2.09671 3.51931 1.98343 3.57944L0.933161 4.1367C0.34839 4.44694 0.118048 5.15588 0.408765 5.75063L0.930891 6.81878C0.987219 6.93403 0.987219 7.06621 0.930891 7.18143L0.408738 8.24958C0.118021 8.84434 0.348363 9.55322 0.933133 9.86348L1.9834 10.4207C2.09671 10.4808 2.1744 10.5878 2.19657 10.7141L2.40198 11.8852C2.5061 12.4788 3.01508 12.8951 3.60004 12.895C3.65765 12.895 3.71611 12.891 3.77487 12.8827L4.9521 12.7161C5.07905 12.6981 5.20478 12.739 5.29698 12.8282L6.1515 13.6549C6.38944 13.885 6.69465 14.0001 6.99997 14.0001C7.3052 14.0001 7.6106 13.885 7.84844 13.6549L8.70298 12.8282C8.79518 12.739 8.92086 12.6983 9.04787 12.7161L10.2251 12.8827C10.8807 12.9754 11.4836 12.5372 11.598 11.8852L11.8034 10.7141C11.8256 10.5878 11.9032 10.4809 12.0165 10.4207L13.0668 9.86348C13.6516 9.55324 13.8819 8.84431 13.5912 8.24956L13.069 7.18138ZM12.6883 9.15017L11.6381 9.70744C11.3032 9.88514 11.0736 10.2012 11.0081 10.5746L10.8027 11.7457C10.764 11.9663 10.56 12.1144 10.3382 12.0831L9.16096 11.9166C8.78553 11.8634 8.41404 11.9843 8.14156 12.2478L7.28702 13.0744C7.12608 13.2301 6.87389 13.2301 6.71289 13.0744L5.85837 12.2478C5.62808 12.025 5.32703 11.9043 5.01274 11.9043C4.95516 11.9043 4.89711 11.9083 4.83898 11.9166L3.66175 12.0831C3.4401 12.1144 3.23598 11.9662 3.19727 11.7456L2.99183 10.5745C2.92632 10.2011 2.69669 9.88506 2.36181 9.70741L1.31154 9.15015C1.11368 9.04517 1.03575 8.80534 1.13411 8.60412L1.65626 7.53594C1.82273 7.19535 1.82273 6.80472 1.65626 6.46413L1.13411 5.39595C1.03575 5.19473 1.11368 4.9549 1.31154 4.84993L2.36181 4.29267C2.69666 4.11496 2.92632 3.79892 2.99181 3.42552L3.19721 2.25445C3.23593 2.03384 3.43986 1.88564 3.6617 1.91697L4.83892 2.0835C5.21421 2.13662 5.58584 2.01585 5.85832 1.75228L6.71286 0.925632C6.8738 0.769937 7.12599 0.769937 7.28699 0.925632L8.14151 1.75228C8.41399 2.01588 8.78556 2.13662 9.1609 2.0835L10.3381 1.91697C10.5598 1.88561 10.7639 2.03384 10.8026 2.25445L11.008 3.42555C11.0735 3.79895 11.3032 4.11502 11.638 4.29267L12.6883 4.84993C12.8862 4.9549 12.9641 5.19473 12.8657 5.39595L12.3436 6.4641C12.1771 6.80467 12.1771 7.19535 12.3436 7.53592L12.8657 8.60407C12.9641 8.80534 12.8862 9.0452 12.6883 9.15017Z" fill="white"/>
<path d="M9.94994 4.05001C9.79231 3.89235 9.53664 3.89235 9.37898 4.05001L4.05001 9.379C3.89235 9.53667 3.89235 9.7923 4.05001 9.94996C4.12884 10.0288 4.23217 10.0682 4.33548 10.0682C4.43878 10.0682 4.54214 10.0288 4.62095 9.94996L9.94992 4.621C10.1076 4.46331 10.1076 4.2077 9.94994 4.05001Z" fill="white"/>
<path d="M5.38502 3.36646C4.56876 3.36646 3.90466 4.03055 3.90466 4.84681C3.90466 5.66307 4.56876 6.32716 5.38502 6.32716C6.20128 6.32716 6.86537 5.66307 6.86537 4.84681C6.86537 4.03055 6.20128 3.36646 5.38502 3.36646ZM5.38502 5.51968C5.01399 5.51968 4.71215 5.21783 4.71215 4.84678C4.71215 4.47576 5.01399 4.17391 5.38502 4.17391C5.75604 4.17391 6.05792 4.47576 6.05792 4.84678C6.05789 5.21783 5.75604 5.51968 5.38502 5.51968Z" fill="white"/>
<path d="M8.61488 7.67285C7.79862 7.67285 7.13452 8.33695 7.13452 9.15321C7.13452 9.96947 7.79862 10.6336 8.61488 10.6336C9.43114 10.6336 10.0952 9.96947 10.0952 9.15321C10.0952 8.33695 9.43114 7.67285 8.61488 7.67285ZM8.61488 9.82608C8.24385 9.82608 7.94198 9.52423 7.94198 9.15321C7.94198 8.78218 8.24382 8.48034 8.61488 8.48034C8.9859 8.48034 9.28775 8.78218 9.28775 9.15321C9.28775 9.52423 8.9859 9.82608 8.61488 9.82608Z" fill="white"/>
</g>
<defs>
<clipPath id="clip0_23_275">
<rect width="14" height="14" fill="white"/>
</clipPath>
</defs>
</svg>
