<svg width="40" height="40" viewBox="0 0 40 40" fill="none" xmlns="http://www.w3.org/2000/svg">
<path d="M31.3988 10.3547C31.3853 9.72629 30.8628 9.21505 30.2342 9.21505H24.7724V6.77246C24.7725 4.14088 22.6315 2 20 2C17.3685 2 15.2275 4.14088 15.2275 6.77246V9.21505H9.76572C9.1372 9.21505 8.61471 9.72629 8.60107 10.3547L8.02598 36.8098C8.01909 37.1257 8.13701 37.424 8.35793 37.6498C8.57892 37.8757 8.87465 38.0001 9.19057 38.0001H30.8092C31.1252 38.0001 31.4209 37.8757 31.6418 37.6498C31.8628 37.424 31.9808 37.1256 31.9738 36.8098L31.3988 10.3547ZM24.2088 12.7474C24.561 12.7474 24.8476 13.034 24.8476 13.3863C24.8476 13.7385 24.561 14.0251 24.2088 14.0251C23.8565 14.0251 23.5699 13.7385 23.5699 13.3863C23.5699 13.034 23.8565 12.7474 24.2088 12.7474ZM15.7912 12.7474C16.1435 12.7474 16.4301 13.034 16.4301 13.3863C16.4301 13.7385 16.1435 14.0251 15.7912 14.0251C15.439 14.0251 15.1524 13.7385 15.1524 13.3863C15.1524 13.034 15.439 12.7474 15.7912 12.7474ZM30.8362 36.8614C30.8252 36.8726 30.8133 36.8726 30.8093 36.8726H9.19064C9.1867 36.8726 9.17489 36.8726 9.16378 36.8614C9.15267 36.8501 9.15295 36.8382 9.15302 36.8343L9.72811 10.3791C9.72853 10.3588 9.7454 10.3424 9.76565 10.3424H15.2275V11.7128C14.5293 11.9486 14.025 12.6094 14.025 13.3862C14.025 14.3601 14.8173 15.1524 15.7912 15.1524C16.7651 15.1524 17.5573 14.3601 17.5573 13.3862C17.5573 12.6094 17.0531 11.9486 16.3549 11.7128V10.3423H21.8036C22.1149 10.3423 22.3673 10.0899 22.3673 9.7786C22.3673 9.46726 22.115 9.21491 21.8036 9.21491H16.3549V6.77246C16.3549 4.76258 17.99 3.12739 19.9999 3.12739C22.0098 3.12739 23.645 4.76258 23.645 6.77246V11.7128C22.9468 11.9487 22.4425 12.6095 22.4425 13.3863C22.4425 14.3602 23.2348 15.1524 24.2087 15.1524C25.1826 15.1524 25.9749 14.3602 25.9749 13.3863C25.9749 12.6095 25.4706 11.9487 24.7724 11.7128V10.3424H30.2342C30.2545 10.3424 30.2713 10.3589 30.2717 10.3792L30.8468 36.8344C30.847 36.8382 30.8472 36.8501 30.8362 36.8614Z" fill="#64B3FB"/>
<path d="M29.0188 34.4177H27.8161C27.4772 34.4177 27.2024 34.6924 27.2024 35.0313C27.2024 35.3702 27.4771 35.645 27.8161 35.645H29.0188C29.3577 35.645 29.6325 35.3703 29.6325 35.0313C29.6325 34.6924 29.3577 34.4177 29.0188 34.4177Z" fill="#64B3FB" stroke="#64B3FB" stroke-width="0.1"/>
<path d="M25.4112 34.4177H10.9812C10.6423 34.4177 10.3675 34.6924 10.3675 35.0313C10.3675 35.3702 10.6422 35.645 10.9812 35.645H25.4112C25.7501 35.645 26.0249 35.3703 26.0249 35.0313C26.0249 34.6924 25.7503 34.4177 25.4112 34.4177Z" fill="#64B3FB" stroke="#64B3FB" stroke-width="0.1"/>
<path d="M24.9773 18.9648C25.217 18.7252 25.6055 18.7252 25.8452 18.9648L24.9773 18.9648ZM24.9773 18.9648C24.9773 18.9648 24.9773 18.9648 24.9773 18.9648M24.9773 18.9648L24.9773 18.9648M24.9773 18.9648L14.1548 29.7873C13.9151 30.0269 13.9151 30.4156 14.1548 30.6552M24.9773 18.9648L25.8452 18.9648C26.0848 19.2044 26.0848 19.5929 25.8451 19.8326L15.0226 30.6552L14.9872 30.6198L15.0226 30.6552C14.9028 30.7751 14.7456 30.8349 14.5887 30.8349C14.4317 30.8349 14.2746 30.775 14.1548 30.6552M14.1548 30.6552C14.1548 30.6552 14.1548 30.6552 14.1548 30.6552L14.1901 30.6198L14.1548 30.6552Z" fill="#64B3FB" stroke="#64B3FB" stroke-width="0.1"/>
<path d="M16.3925 18.1839C14.7279 18.1839 13.3738 19.5381 13.3738 21.2026C13.3738 22.867 14.728 24.2212 16.3925 24.2212C18.0569 24.2212 19.4111 22.867 19.4111 21.2026C19.4111 19.5381 18.057 18.1839 16.3925 18.1839ZM16.3925 22.9939C15.4048 22.9939 14.6011 22.1902 14.6011 21.2026C14.6011 20.2149 15.4048 19.4112 16.3925 19.4112C17.3802 19.4112 18.1838 20.2149 18.1838 21.2026C18.1838 22.1902 17.3802 22.9939 16.3925 22.9939Z" fill="#64B3FB" stroke="#64B3FB" stroke-width="0.1"/>
<path d="M23.6076 25.3989C21.943 25.3989 20.5889 26.753 20.5889 28.4175C20.5889 30.0821 21.9431 31.4362 23.6076 31.4362C25.272 31.4362 26.6262 30.082 26.6262 28.4175C26.6262 26.753 25.272 25.3989 23.6076 25.3989ZM23.6076 30.2089C22.6199 30.2089 21.8162 29.4052 21.8162 28.4175C21.8162 27.4298 22.6199 26.6262 23.6076 26.6262C24.5952 26.6262 25.3989 27.4298 25.3989 28.4175C25.3989 29.4052 24.5952 30.2089 23.6076 30.2089Z" fill="#64B3FB" stroke="#64B3FB" stroke-width="0.1"/>
</svg>
