<svg width="20" height="20" viewBox="0 0 20 20" fill="none" xmlns="http://www.w3.org/2000/svg">
<g clip-path="url(#clip0_1_600)">
<path d="M-0.0749158 6.74601C-0.0748873 8.24585 0.514057 9.65129 1.5752 10.7124L9.53787 18.6751C9.6621 18.7993 9.82954 18.8667 9.9937 18.8667C10.1564 18.8667 10.3243 18.8046 10.4495 18.6793L18.4291 10.7295L18.4292 10.7294L20 6.75862L20.075 6.75884C20.075 6.75876 20.075 6.75869 20.075 6.75862C20.0793 5.25902 19.499 3.84922 18.4376 2.78785C17.3763 1.72647 15.9707 1.14622 14.4711 1.14622C12.9714 1.14622 11.5617 1.73078 10.5003 2.79209L10.0064 3.28602L9.50402 2.78361C8.44276 1.72236 7.02877 1.1335 5.52901 1.1335C4.03359 1.1335 2.62381 1.71805 1.56672 2.77513C0.505434 3.83642 -0.0791852 5.24622 -0.0749158 6.74601ZM-0.0749158 6.74601C-0.0749158 6.74597 -0.0749158 6.74594 -0.0749158 6.7459H8.42521e-05L-0.0749154 6.74612C-0.0749156 6.74608 -0.0749156 6.74605 -0.0749158 6.74601ZM2.48249 3.69541L2.48262 3.69527C3.29539 2.88251 4.37872 2.43253 5.52901 2.43253C6.6836 2.43253 7.77116 2.88255 8.58812 3.69951L9.54635 4.65775C9.80036 4.91176 10.2082 4.91176 10.4623 4.65775L11.412 3.70799C12.229 2.89101 13.3166 2.44101 14.4669 2.44101C15.6171 2.44101 16.7004 2.89092 17.5175 3.70375C18.3344 4.52064 18.7802 5.60392 18.7802 6.75862L18.7802 6.75889C18.7844 7.91321 18.3345 8.99647 17.5175 9.81349L9.99381 17.3077L2.48686 9.80077C1.66985 8.98375 1.21988 7.90042 1.21988 6.7459C1.21988 5.59116 1.66576 4.50797 2.48249 3.69541Z" fill="#64B3FB" stroke="#64B3FB" stroke-width="0.15"/>
</g>
<defs>
<clipPath id="clip0_1_600">
<rect width="20" height="20" fill="white"/>
</clipPath>
</defs>
</svg>
