<svg width="11" height="14" viewBox="0 0 11 14" fill="none" xmlns="http://www.w3.org/2000/svg">
<g clip-path="url(#clip0_1_636)">
<path d="M5.5 8.3125C7.01661 8.3125 8.24997 7.13519 8.24997 5.6875C8.24997 4.23981 7.01661 3.0625 5.5 3.0625C3.98339 3.0625 2.75003 4.23981 2.75003 5.6875C2.75003 7.13519 3.98339 8.3125 5.5 8.3125ZM5.5 4.375C6.2583 4.375 6.87499 4.96366 6.87499 5.6875C6.87499 6.41134 6.2583 7 5.5 7C4.7417 7 4.12502 6.41134 4.12502 5.6875C4.12502 4.96366 4.7417 4.375 5.5 4.375Z" fill="#64B3FB"/>
<path d="M5.10125 13.4404C5.21761 13.5198 5.35702 13.5624 5.5 13.5624C5.64298 13.5624 5.78239 13.5198 5.89875 13.4404C6.10774 13.2993 11.0199 9.91375 10.9999 5.6875C10.9999 2.79278 8.53253 0.4375 5.5 0.4375C2.46747 0.4375 6.05253e-05 2.79278 6.05253e-05 5.68422C-0.0198768 9.91375 4.89226 13.2993 5.10125 13.4404ZM5.5 1.75C7.77491 1.75 9.62496 3.51597 9.62496 5.69078C9.63939 8.60322 6.60824 11.2184 5.5 12.0761C4.39245 11.2177 1.36061 8.60191 1.37505 5.6875C1.37505 3.51597 3.22509 1.75 5.5 1.75Z" fill="#64B3FB"/>
</g>
<defs>
<clipPath id="clip0_1_636">
<rect width="11" height="14" fill="white"/>
</clipPath>
</defs>
</svg>
