<svg width="40" height="40" viewBox="0 0 40 40" fill="none" xmlns="http://www.w3.org/2000/svg">
<mask id="path-1-outside-1_1_1051" maskUnits="userSpaceOnUse" x="4" y="4" width="31" height="32" fill="black">
<rect fill="white" x="4" y="4" width="31" height="32"/>
<path d="M33.1005 22.5719H32.6516V18.528C32.6516 17.8879 32.3329 17.321 31.8463 16.9766V16.426C31.8463 15.6273 31.1966 14.9776 30.3979 14.9776H30.0627L31.3452 13.0955C31.7751 12.4647 31.6116 11.6017 30.9808 11.1717L22.2778 5.24086C21.9723 5.03256 21.6039 4.95569 21.2404 5.02465C20.8771 5.0935 20.5623 5.29969 20.354 5.60532L12.8422 16.6281H10.7519L11.2562 11.5229C11.2619 11.4653 11.2993 11.4155 11.3514 11.3958C12.0012 11.1509 12.5643 10.6934 12.9369 10.1077C12.9663 10.0615 13.0217 10.0352 13.079 10.041L16.3576 10.3649C16.5927 10.3877 16.8018 10.2165 16.825 9.98151C16.8482 9.74655 16.6766 9.53731 16.4416 9.5141L13.163 9.1902C12.7824 9.15293 12.4195 9.3283 12.2156 9.64869C11.9416 10.0794 11.5276 10.4157 11.0499 10.5958C10.6903 10.7314 10.4434 11.0544 10.4054 11.4388L9.89281 16.6281H9.34771L10.1453 8.55364C10.174 8.26301 10.4334 8.0495 10.7244 8.07862L17.3498 8.73311C17.5848 8.75578 17.794 8.58469 17.8172 8.34973C17.8404 8.11477 17.6688 7.90553 17.4338 7.88233L10.8084 7.22784C10.0488 7.15289 9.36951 7.70983 9.29445 8.46955L8.65156 14.9776H7.55674C6.75811 14.9776 6.1083 15.6273 6.1083 16.426V16.8016C5.45492 17.1024 5 17.7629 5 18.528V33.1C5 34.1477 5.8523 35 6.90002 35H30.7516C31.7993 35 32.6516 34.1477 32.6516 33.1V29.0562H33.1005C33.6304 29.0562 34.0615 28.6252 34.0615 28.0953V23.5329C34.0616 23.003 33.6304 22.5719 33.1005 22.5719ZM30.3979 15.8326C30.7252 15.8325 30.9914 16.0988 30.9914 16.4261V16.6438C30.9127 16.6339 30.8329 16.6282 30.7516 16.6282H28.9378L29.48 15.8326H30.3979ZM21.0605 6.08672C21.1402 5.96983 21.2606 5.89096 21.3996 5.86459C21.4328 5.85832 21.4661 5.85516 21.4992 5.85516C21.6045 5.85516 21.7074 5.88668 21.7964 5.94727L30.4994 11.8781C30.7406 12.0426 30.8032 12.3727 30.6388 12.614L27.9033 16.628H27.2468L28.588 14.66C28.8055 14.3409 28.8234 13.9347 28.6346 13.6C28.3837 13.1552 28.282 12.6316 28.3482 12.1254C28.3974 11.7488 28.2317 11.3812 27.9158 11.1659L23.4042 8.09139C23.0882 7.87606 22.6854 7.85631 22.353 8.03989C21.9062 8.28657 21.3816 8.38342 20.8759 8.31264C20.5009 8.26002 20.1206 8.42936 19.9063 8.74371L14.5333 16.6281H13.8768L21.0605 6.08672ZM21.2488 13.346C19.3872 13.346 17.859 14.7975 17.7345 16.6281H15.5678L20.6127 9.22518C20.6413 9.18305 20.6889 9.15797 20.7377 9.15797C20.7442 9.15797 20.7507 9.15844 20.7572 9.15932C21.445 9.25553 22.1584 9.12393 22.7661 8.78836C22.8139 8.76188 22.8753 8.76569 22.9227 8.79791L27.4343 11.8725C27.4815 11.9047 27.5075 11.9605 27.5005 12.0147C27.4104 12.7031 27.5488 13.4152 27.89 14.02C27.9174 14.0686 27.914 14.1308 27.8816 14.1786L26.2123 16.628H24.7631C24.6385 14.7975 23.1105 13.346 21.2488 13.346ZM23.9059 16.6281H18.5917C18.7142 15.2694 19.8587 14.201 21.2488 14.201C22.6388 14.2009 23.7835 15.2694 23.9059 16.6281ZM6.96324 16.426C6.96324 16.0987 7.22943 15.8324 7.55674 15.8324H8.56713L8.48855 16.6281H6.96324V16.426ZM5.85494 18.528C5.85494 17.9518 6.32375 17.483 6.90002 17.483H30.7516C31.3279 17.483 31.7966 17.9518 31.7966 18.528V19.7142H5.85494V18.528ZM31.7966 33.1C31.7966 33.6762 31.3279 34.145 30.7516 34.145H6.90002C6.32375 34.145 5.85494 33.6762 5.85494 33.1V31.9138H8.16014C8.39627 31.9138 8.58758 31.7225 8.58758 31.4864C8.58758 31.2503 8.39621 31.059 8.16014 31.059H5.85494V20.5692H31.7966V22.5719H27.7322C26.4516 22.5719 25.3422 23.3184 24.8158 24.3989C24.814 24.4025 24.812 24.4061 24.8102 24.4097C24.8057 24.4189 24.8019 24.4284 24.7975 24.4377C24.7348 24.5709 24.6804 24.7087 24.636 24.851L24.6356 24.8522C24.541 25.1562 24.49 25.4793 24.49 25.8141C24.49 27.6018 25.9444 29.0562 27.7321 29.0562H31.7966V31.059H10.8973C10.6612 31.059 10.4698 31.2503 10.4698 31.4864C10.4698 31.7225 10.6612 31.9138 10.8973 31.9138H31.7966V33.1ZM33.2066 28.0952C33.2066 28.1537 33.159 28.2013 33.1005 28.2013H27.7323C26.8273 28.2013 26.0383 27.6951 25.6336 26.951C25.6152 26.9172 25.5976 26.8829 25.5808 26.8481C25.5472 26.7786 25.5169 26.7071 25.4901 26.634C25.3963 26.3782 25.345 26.102 25.345 25.8141C25.345 25.5261 25.3963 25.2499 25.4901 24.9941C25.517 24.921 25.5472 24.8496 25.5808 24.78C25.5976 24.7453 25.6152 24.7109 25.6336 24.6771C26.0383 23.933 26.8273 23.4268 27.7323 23.4268H33.1005C33.159 23.4268 33.2066 23.4744 33.2066 23.5329V28.0952Z"/>
</mask>
<path d="M33.1005 22.5719H32.6516V18.528C32.6516 17.8879 32.3329 17.321 31.8463 16.9766V16.426C31.8463 15.6273 31.1966 14.9776 30.3979 14.9776H30.0627L31.3452 13.0955C31.7751 12.4647 31.6116 11.6017 30.9808 11.1717L22.2778 5.24086C21.9723 5.03256 21.6039 4.95569 21.2404 5.02465C20.8771 5.0935 20.5623 5.29969 20.354 5.60532L12.8422 16.6281H10.7519L11.2562 11.5229C11.2619 11.4653 11.2993 11.4155 11.3514 11.3958C12.0012 11.1509 12.5643 10.6934 12.9369 10.1077C12.9663 10.0615 13.0217 10.0352 13.079 10.041L16.3576 10.3649C16.5927 10.3877 16.8018 10.2165 16.825 9.98151C16.8482 9.74655 16.6766 9.53731 16.4416 9.5141L13.163 9.1902C12.7824 9.15293 12.4195 9.3283 12.2156 9.64869C11.9416 10.0794 11.5276 10.4157 11.0499 10.5958C10.6903 10.7314 10.4434 11.0544 10.4054 11.4388L9.89281 16.6281H9.34771L10.1453 8.55364C10.174 8.26301 10.4334 8.0495 10.7244 8.07862L17.3498 8.73311C17.5848 8.75578 17.794 8.58469 17.8172 8.34973C17.8404 8.11477 17.6688 7.90553 17.4338 7.88233L10.8084 7.22784C10.0488 7.15289 9.36951 7.70983 9.29445 8.46955L8.65156 14.9776H7.55674C6.75811 14.9776 6.1083 15.6273 6.1083 16.426V16.8016C5.45492 17.1024 5 17.7629 5 18.528V33.1C5 34.1477 5.8523 35 6.90002 35H30.7516C31.7993 35 32.6516 34.1477 32.6516 33.1V29.0562H33.1005C33.6304 29.0562 34.0615 28.6252 34.0615 28.0953V23.5329C34.0616 23.003 33.6304 22.5719 33.1005 22.5719ZM30.3979 15.8326C30.7252 15.8325 30.9914 16.0988 30.9914 16.4261V16.6438C30.9127 16.6339 30.8329 16.6282 30.7516 16.6282H28.9378L29.48 15.8326H30.3979ZM21.0605 6.08672C21.1402 5.96983 21.2606 5.89096 21.3996 5.86459C21.4328 5.85832 21.4661 5.85516 21.4992 5.85516C21.6045 5.85516 21.7074 5.88668 21.7964 5.94727L30.4994 11.8781C30.7406 12.0426 30.8032 12.3727 30.6388 12.614L27.9033 16.628H27.2468L28.588 14.66C28.8055 14.3409 28.8234 13.9347 28.6346 13.6C28.3837 13.1552 28.282 12.6316 28.3482 12.1254C28.3974 11.7488 28.2317 11.3812 27.9158 11.1659L23.4042 8.09139C23.0882 7.87606 22.6854 7.85631 22.353 8.03989C21.9062 8.28657 21.3816 8.38342 20.8759 8.31264C20.5009 8.26002 20.1206 8.42936 19.9063 8.74371L14.5333 16.6281H13.8768L21.0605 6.08672ZM21.2488 13.346C19.3872 13.346 17.859 14.7975 17.7345 16.6281H15.5678L20.6127 9.22518C20.6413 9.18305 20.6889 9.15797 20.7377 9.15797C20.7442 9.15797 20.7507 9.15844 20.7572 9.15932C21.445 9.25553 22.1584 9.12393 22.7661 8.78836C22.8139 8.76188 22.8753 8.76569 22.9227 8.79791L27.4343 11.8725C27.4815 11.9047 27.5075 11.9605 27.5005 12.0147C27.4104 12.7031 27.5488 13.4152 27.89 14.02C27.9174 14.0686 27.914 14.1308 27.8816 14.1786L26.2123 16.628H24.7631C24.6385 14.7975 23.1105 13.346 21.2488 13.346ZM23.9059 16.6281H18.5917C18.7142 15.2694 19.8587 14.201 21.2488 14.201C22.6388 14.2009 23.7835 15.2694 23.9059 16.6281ZM6.96324 16.426C6.96324 16.0987 7.22943 15.8324 7.55674 15.8324H8.56713L8.48855 16.6281H6.96324V16.426ZM5.85494 18.528C5.85494 17.9518 6.32375 17.483 6.90002 17.483H30.7516C31.3279 17.483 31.7966 17.9518 31.7966 18.528V19.7142H5.85494V18.528ZM31.7966 33.1C31.7966 33.6762 31.3279 34.145 30.7516 34.145H6.90002C6.32375 34.145 5.85494 33.6762 5.85494 33.1V31.9138H8.16014C8.39627 31.9138 8.58758 31.7225 8.58758 31.4864C8.58758 31.2503 8.39621 31.059 8.16014 31.059H5.85494V20.5692H31.7966V22.5719H27.7322C26.4516 22.5719 25.3422 23.3184 24.8158 24.3989C24.814 24.4025 24.812 24.4061 24.8102 24.4097C24.8057 24.4189 24.8019 24.4284 24.7975 24.4377C24.7348 24.5709 24.6804 24.7087 24.636 24.851L24.6356 24.8522C24.541 25.1562 24.49 25.4793 24.49 25.8141C24.49 27.6018 25.9444 29.0562 27.7321 29.0562H31.7966V31.059H10.8973C10.6612 31.059 10.4698 31.2503 10.4698 31.4864C10.4698 31.7225 10.6612 31.9138 10.8973 31.9138H31.7966V33.1ZM33.2066 28.0952C33.2066 28.1537 33.159 28.2013 33.1005 28.2013H27.7323C26.8273 28.2013 26.0383 27.6951 25.6336 26.951C25.6152 26.9172 25.5976 26.8829 25.5808 26.8481C25.5472 26.7786 25.5169 26.7071 25.4901 26.634C25.3963 26.3782 25.345 26.102 25.345 25.8141C25.345 25.5261 25.3963 25.2499 25.4901 24.9941C25.517 24.921 25.5472 24.8496 25.5808 24.78C25.5976 24.7453 25.6152 24.7109 25.6336 24.6771C26.0383 23.933 26.8273 23.4268 27.7323 23.4268H33.1005C33.159 23.4268 33.2066 23.4744 33.2066 23.5329V28.0952Z" fill="#64B3FB"/>
<path d="M33.1005 22.5719H32.6516V18.528C32.6516 17.8879 32.3329 17.321 31.8463 16.9766V16.426C31.8463 15.6273 31.1966 14.9776 30.3979 14.9776H30.0627L31.3452 13.0955C31.7751 12.4647 31.6116 11.6017 30.9808 11.1717L22.2778 5.24086C21.9723 5.03256 21.6039 4.95569 21.2404 5.02465C20.8771 5.0935 20.5623 5.29969 20.354 5.60532L12.8422 16.6281H10.7519L11.2562 11.5229C11.2619 11.4653 11.2993 11.4155 11.3514 11.3958C12.0012 11.1509 12.5643 10.6934 12.9369 10.1077C12.9663 10.0615 13.0217 10.0352 13.079 10.041L16.3576 10.3649C16.5927 10.3877 16.8018 10.2165 16.825 9.98151C16.8482 9.74655 16.6766 9.53731 16.4416 9.5141L13.163 9.1902C12.7824 9.15293 12.4195 9.3283 12.2156 9.64869C11.9416 10.0794 11.5276 10.4157 11.0499 10.5958C10.6903 10.7314 10.4434 11.0544 10.4054 11.4388L9.89281 16.6281H9.34771L10.1453 8.55364C10.174 8.26301 10.4334 8.0495 10.7244 8.07862L17.3498 8.73311C17.5848 8.75578 17.794 8.58469 17.8172 8.34973C17.8404 8.11477 17.6688 7.90553 17.4338 7.88233L10.8084 7.22784C10.0488 7.15289 9.36951 7.70983 9.29445 8.46955L8.65156 14.9776H7.55674C6.75811 14.9776 6.1083 15.6273 6.1083 16.426V16.8016C5.45492 17.1024 5 17.7629 5 18.528V33.1C5 34.1477 5.8523 35 6.90002 35H30.7516C31.7993 35 32.6516 34.1477 32.6516 33.1V29.0562H33.1005C33.6304 29.0562 34.0615 28.6252 34.0615 28.0953V23.5329C34.0616 23.003 33.6304 22.5719 33.1005 22.5719ZM30.3979 15.8326C30.7252 15.8325 30.9914 16.0988 30.9914 16.4261V16.6438C30.9127 16.6339 30.8329 16.6282 30.7516 16.6282H28.9378L29.48 15.8326H30.3979ZM21.0605 6.08672C21.1402 5.96983 21.2606 5.89096 21.3996 5.86459C21.4328 5.85832 21.4661 5.85516 21.4992 5.85516C21.6045 5.85516 21.7074 5.88668 21.7964 5.94727L30.4994 11.8781C30.7406 12.0426 30.8032 12.3727 30.6388 12.614L27.9033 16.628H27.2468L28.588 14.66C28.8055 14.3409 28.8234 13.9347 28.6346 13.6C28.3837 13.1552 28.282 12.6316 28.3482 12.1254C28.3974 11.7488 28.2317 11.3812 27.9158 11.1659L23.4042 8.09139C23.0882 7.87606 22.6854 7.85631 22.353 8.03989C21.9062 8.28657 21.3816 8.38342 20.8759 8.31264C20.5009 8.26002 20.1206 8.42936 19.9063 8.74371L14.5333 16.6281H13.8768L21.0605 6.08672ZM21.2488 13.346C19.3872 13.346 17.859 14.7975 17.7345 16.6281H15.5678L20.6127 9.22518C20.6413 9.18305 20.6889 9.15797 20.7377 9.15797C20.7442 9.15797 20.7507 9.15844 20.7572 9.15932C21.445 9.25553 22.1584 9.12393 22.7661 8.78836C22.8139 8.76188 22.8753 8.76569 22.9227 8.79791L27.4343 11.8725C27.4815 11.9047 27.5075 11.9605 27.5005 12.0147C27.4104 12.7031 27.5488 13.4152 27.89 14.02C27.9174 14.0686 27.914 14.1308 27.8816 14.1786L26.2123 16.628H24.7631C24.6385 14.7975 23.1105 13.346 21.2488 13.346ZM23.9059 16.6281H18.5917C18.7142 15.2694 19.8587 14.201 21.2488 14.201C22.6388 14.2009 23.7835 15.2694 23.9059 16.6281ZM6.96324 16.426C6.96324 16.0987 7.22943 15.8324 7.55674 15.8324H8.56713L8.48855 16.6281H6.96324V16.426ZM5.85494 18.528C5.85494 17.9518 6.32375 17.483 6.90002 17.483H30.7516C31.3279 17.483 31.7966 17.9518 31.7966 18.528V19.7142H5.85494V18.528ZM31.7966 33.1C31.7966 33.6762 31.3279 34.145 30.7516 34.145H6.90002C6.32375 34.145 5.85494 33.6762 5.85494 33.1V31.9138H8.16014C8.39627 31.9138 8.58758 31.7225 8.58758 31.4864C8.58758 31.2503 8.39621 31.059 8.16014 31.059H5.85494V20.5692H31.7966V22.5719H27.7322C26.4516 22.5719 25.3422 23.3184 24.8158 24.3989C24.814 24.4025 24.812 24.4061 24.8102 24.4097C24.8057 24.4189 24.8019 24.4284 24.7975 24.4377C24.7348 24.5709 24.6804 24.7087 24.636 24.851L24.6356 24.8522C24.541 25.1562 24.49 25.4793 24.49 25.8141C24.49 27.6018 25.9444 29.0562 27.7321 29.0562H31.7966V31.059H10.8973C10.6612 31.059 10.4698 31.2503 10.4698 31.4864C10.4698 31.7225 10.6612 31.9138 10.8973 31.9138H31.7966V33.1ZM33.2066 28.0952C33.2066 28.1537 33.159 28.2013 33.1005 28.2013H27.7323C26.8273 28.2013 26.0383 27.6951 25.6336 26.951C25.6152 26.9172 25.5976 26.8829 25.5808 26.8481C25.5472 26.7786 25.5169 26.7071 25.4901 26.634C25.3963 26.3782 25.345 26.102 25.345 25.8141C25.345 25.5261 25.3963 25.2499 25.4901 24.9941C25.517 24.921 25.5472 24.8496 25.5808 24.78C25.5976 24.7453 25.6152 24.7109 25.6336 24.6771C26.0383 23.933 26.8273 23.4268 27.7323 23.4268H33.1005C33.159 23.4268 33.2066 23.4744 33.2066 23.5329V28.0952Z" stroke="#64B3FB" stroke-width="0.2" mask="url(#path-1-outside-1_1_1051)"/>
<path d="M27.8324 24.0797C26.876 24.0797 26.098 24.8578 26.098 25.8141C26.098 26.7704 26.876 27.5484 27.8324 27.5484C28.7887 27.5484 29.5668 26.7704 29.5668 25.8141C29.5668 24.8578 28.7887 24.0797 27.8324 24.0797ZM27.8324 26.6935C27.3475 26.6935 26.9529 26.299 26.9529 25.8141C26.9529 25.3292 27.3475 24.9347 27.8324 24.9347C28.3173 24.9347 28.7118 25.3292 28.7118 25.8141C28.7118 26.299 28.3173 26.6935 27.8324 26.6935Z" fill="#64B3FB"/>
</svg>
