<svg width="14" height="14" viewBox="0 0 14 14" fill="none" xmlns="http://www.w3.org/2000/svg">
<path d="M12.9268 12.2198L9.44085 8.73383C10.102 7.91757 10.5 6.87985 10.5 5.75002C10.5 3.13087 8.36914 1 5.75 1C3.13085 1 1 3.13087 1 5.75002C1 8.36917 3.13087 10.5 5.75002 10.5C6.87985 10.5 7.91757 10.102 8.73383 9.44088L12.2197 12.9268C12.3174 13.0244 12.4757 13.0244 12.5733 12.9268L12.9268 12.5733C13.0244 12.4757 13.0244 12.3174 12.9268 12.2198ZM5.75002 9.50003C3.68215 9.50003 2.00001 7.81789 2.00001 5.75002C2.00001 3.68215 3.68215 2.00001 5.75002 2.00001C7.81789 2.00001 9.50003 3.68215 9.50003 5.75002C9.50003 7.81789 7.81789 9.50003 5.75002 9.50003Z" fill="#D0D0D0" stroke="#D0D0D0" stroke-width="0.2"/>
</svg>
