<svg width="20" height="21" viewBox="0 0 20 21" fill="none" xmlns="http://www.w3.org/2000/svg">
<path d="M14.2497 9.15371L14.2159 9.20876L14.2777 9.22769C14.6208 9.33282 14.9475 9.47548 15.2578 9.65571C15.5657 9.83457 15.8902 10.1079 16.2312 10.4774C16.5706 10.8453 16.8612 11.2794 17.1028 11.7801C17.3438 12.2797 17.5457 12.928 17.7075 13.7263C17.869 14.5231 17.95 15.4171 17.95 16.4087C17.95 17.5659 17.5851 18.5538 16.8558 19.3751C16.1267 20.1963 15.2509 20.6049 14.2259 20.6049H4.77409C3.74908 20.6049 2.87325 20.1963 2.14416 19.3751C1.41488 18.5538 1.05 17.5659 1.05 16.4087C1.05 15.4171 1.13095 14.5231 1.29249 13.7263C1.45433 12.928 1.65618 12.2797 1.89725 11.7801C2.13882 11.2794 2.42943 10.8453 2.76884 10.4774C3.10979 10.1079 3.4343 9.83457 3.74224 9.65571C4.05252 9.47548 4.37919 9.33282 4.72233 9.22769L4.78411 9.20876L4.75028 9.15371C4.17223 8.21294 3.88333 7.18986 3.88333 6.08346C3.88333 5.30066 4.03148 4.55397 4.32773 3.84298C4.62429 3.13122 5.02489 2.51619 5.52934 1.99733C6.03378 1.47847 6.63158 1.06657 7.32323 0.761684C8.01409 0.457139 8.73953 0.304883 9.5 0.304883C10.2605 0.304883 10.9859 0.457139 11.6768 0.761684C12.3684 1.06657 12.9662 1.47847 13.4707 1.99733C13.9751 2.51619 14.3757 3.13122 14.6723 3.84298C14.9685 4.55397 15.1167 5.30066 15.1167 6.08346C15.1167 7.18986 14.8278 8.21294 14.2497 9.15371ZM13.2212 10.4163L13.2006 10.4153L13.1853 10.4291C12.1244 11.3849 10.8966 11.862 9.5 11.862C8.10337 11.862 6.87563 11.3849 5.81472 10.4291L5.7994 10.4153L5.7788 10.4163C4.67486 10.4704 3.8283 11.0321 3.24173 12.0927C2.65684 13.1503 2.36667 14.5904 2.36667 16.4087C2.36667 17.1935 2.60077 17.8637 3.0703 18.4162C3.53991 18.9688 4.10858 19.2477 4.77409 19.2477H14.2259C14.8914 19.2477 15.4601 18.9688 15.9297 18.4162C16.3992 17.8637 16.6333 17.1935 16.6333 16.4087C16.6333 14.5904 16.3432 13.1503 15.7583 12.0927C15.1717 11.0321 14.3251 10.4704 13.2212 10.4163ZM9.5 1.66203C8.31309 1.66203 7.2986 2.09455 6.45927 2.95786C5.61998 3.82113 5.2 4.86394 5.2 6.08346C5.2 7.30297 5.61998 8.34578 6.45927 9.20905C7.2986 10.0724 8.31309 10.5049 9.5 10.5049C10.6869 10.5049 11.7014 10.0724 12.5407 9.20905C13.38 8.34578 13.8 7.30297 13.8 6.08346C13.8 4.86394 13.38 3.82113 12.5407 2.95786C11.7014 2.09455 10.6869 1.66203 9.5 1.66203Z" fill="#64B3FB" stroke="white" stroke-width="0.1"/>
</svg>
