<svg width="40" height="40" viewBox="0 0 40 40" fill="none" xmlns="http://www.w3.org/2000/svg">
<g clip-path="url(#clip0_1_539)">
<mask id="path-1-outside-1_1_539" maskUnits="userSpaceOnUse" x="-1" y="4.38025" width="42" height="31" fill="black">
<rect fill="white" x="-1" y="4.38025" width="42" height="31"/>
<path d="M32.3828 14.7286H29.8645L30.6232 6.01689C30.6247 6.00111 30.6249 5.98556 30.625 5.97002C30.625 5.96869 30.6251 5.96744 30.6251 5.96611C30.6251 5.96588 30.6251 5.96572 30.6251 5.96549C30.6251 5.72838 30.4821 5.51939 30.2718 5.42853C30.27 5.42775 30.2683 5.42681 30.2665 5.42603C30.2535 5.42056 30.24 5.41587 30.2264 5.41134C30.2213 5.4097 30.2164 5.40767 30.2114 5.40611C30.2003 5.40275 30.1889 5.40009 30.1775 5.39736C30.1696 5.39548 30.1619 5.39322 30.1539 5.39166C30.1439 5.3897 30.1336 5.38845 30.1235 5.38697C30.1139 5.38556 30.1046 5.38392 30.095 5.38306C30.0933 5.38291 30.0918 5.38259 30.0902 5.38244C30.0799 5.3815 30.0697 5.38166 30.0595 5.38126C30.0526 5.38103 30.0459 5.38025 30.039 5.38025H30.0317C30.0311 5.38025 30.0304 5.38025 30.0299 5.38025H18.0477C17.7243 5.38025 17.4618 5.64275 17.4618 5.96619C17.4618 6.28885 17.7243 6.55213 18.0477 6.55213H29.4003L28.2343 19.9409C28.2341 19.9419 28.2341 19.9429 28.2339 19.9439L27.9397 23.3221H7.57956L7.92011 19.8066H11.7968C12.1204 19.8066 12.3827 19.5443 12.3827 19.2207C12.3827 18.8971 12.1204 18.6348 11.7968 18.6348H8.0337L8.75277 11.2132H14.9227C15.2464 11.2132 15.5087 10.9509 15.5087 10.6273C15.5087 10.3037 15.2464 10.0414 14.9227 10.0414H8.86636L9.20449 6.55213H15.704C16.0266 6.55213 16.2899 6.28885 16.2899 5.96619C16.2899 5.64275 16.0266 5.38025 15.704 5.38025H8.67269C8.67238 5.38025 8.67214 5.38033 8.67183 5.38033C8.3966 5.38025 8.15784 5.574 8.10011 5.8426C8.09972 5.84455 8.09902 5.84642 8.09863 5.84838C8.09566 5.86299 8.0937 5.87791 8.09175 5.89291C8.0912 5.89767 8.09019 5.9022 8.08972 5.90697C8.08964 5.90791 8.08941 5.90877 8.08933 5.9097L7.68901 10.0414H0.58594C0.262267 10.0414 0 10.3037 0 10.6273C0 10.9509 0.262267 11.2132 0.58594 11.2132H7.57542L6.85636 18.6348H4.7658C4.44213 18.6348 4.17986 18.8971 4.17986 19.2207C4.17986 19.5443 4.44213 19.8066 4.7658 19.8066H6.74284L6.35127 23.8474C6.3512 23.848 6.3512 23.8486 6.35112 23.8492L5.74573 30.0975C5.74565 30.0982 5.74557 30.099 5.74549 30.0996L5.74526 30.1019C5.74448 30.11 5.74455 30.118 5.74409 30.1261C5.74354 30.1369 5.74244 30.1475 5.74244 30.1584C5.74244 30.1589 5.74252 30.1593 5.74252 30.1599C5.74252 30.175 5.74362 30.1898 5.74471 30.2046C5.74518 30.2094 5.74502 30.2143 5.74557 30.2189C5.74713 30.2341 5.74971 30.249 5.75244 30.2639C5.75323 30.2682 5.75362 30.2727 5.75448 30.277C5.75674 30.2882 5.75994 30.2991 5.76291 30.3101C5.76494 30.3178 5.76659 30.3257 5.76893 30.3333C5.76963 30.3354 5.77057 30.3375 5.77119 30.3396C5.79955 30.4268 5.84768 30.5051 5.91049 30.569C5.91166 30.5702 5.9126 30.5715 5.91377 30.5726C5.92002 30.5789 5.92682 30.5845 5.93338 30.5904C5.97377 30.6275 6.0194 30.6589 6.06932 30.6835C6.07971 30.6886 6.08995 30.694 6.10057 30.6985C6.10377 30.6999 6.10721 30.7008 6.11049 30.7021C6.12518 30.7079 6.13995 30.7136 6.15518 30.7183C6.15659 30.7187 6.15791 30.7189 6.15932 30.7194C6.17666 30.7246 6.19416 30.7291 6.21206 30.7328C6.2144 30.7332 6.21682 30.7334 6.21909 30.7339C6.23612 30.7371 6.25323 30.7398 6.27065 30.7415C6.27104 30.7415 6.27135 30.7416 6.27174 30.7417C6.29096 30.7436 6.31002 30.7445 6.32893 30.7445C6.32917 30.7445 6.32948 30.7444 6.32979 30.7444H8.93824C9.22629 32.9282 11.0986 34.6197 13.3599 34.6197C15.6211 34.6197 17.4933 32.9282 17.7814 30.7444H27.1798C27.4679 32.9282 29.3401 34.6197 31.6014 34.6197C33.8626 34.6197 35.735 32.9282 36.0231 30.7444H38.6322C38.6326 30.7444 38.633 30.7445 38.6334 30.7445C38.653 30.7445 38.6722 30.7433 38.6912 30.7414C38.6947 30.7411 38.698 30.7404 38.7014 30.74C38.7166 30.7382 38.7318 30.7361 38.7466 30.7332C38.753 30.7319 38.7592 30.7302 38.7655 30.7287C38.777 30.7261 38.7886 30.7232 38.7998 30.7199C38.8075 30.7176 38.8149 30.715 38.8224 30.7124C38.832 30.7091 38.8416 30.7057 38.8511 30.7018C38.8592 30.6986 38.867 30.6951 38.8748 30.6916C38.8834 30.6876 38.892 30.6836 38.9004 30.6793C38.9084 30.6752 38.916 30.671 38.9237 30.6666C38.9317 30.6619 38.9397 30.6571 38.9476 30.6521C38.9549 30.6474 38.9623 30.6426 38.9693 30.6376C38.9773 30.6321 38.9848 30.6262 38.9926 30.6203C38.999 30.6152 39.0055 30.6102 39.0117 30.6049C39.0198 30.5981 39.0273 30.591 39.035 30.5837C39.0403 30.5786 39.0459 30.5736 39.051 30.5683C39.0591 30.56 39.0669 30.5513 39.0746 30.5425C39.0787 30.5377 39.083 30.5331 39.087 30.5282C39.0956 30.5176 39.1034 30.5067 39.1112 30.4957C39.1139 30.4918 39.1169 30.4882 39.1194 30.4843C39.129 30.47 39.138 30.4553 39.1462 30.4402C39.1469 30.4393 39.1475 30.4384 39.1479 30.4374C39.1567 30.4211 39.1648 30.4045 39.1721 30.3873C39.1741 30.3824 39.1757 30.3773 39.1777 30.3724C39.1824 30.3603 39.1871 30.3482 39.1911 30.3356C39.1937 30.3275 39.1955 30.3191 39.1978 30.3109C39.2004 30.3011 39.2031 30.2914 39.2053 30.2815C39.2073 30.2727 39.2085 30.2636 39.21 30.2546C39.2113 30.2468 39.213 30.239 39.2141 30.231C39.2389 30.0319 39.6977 26.3507 39.9027 23.9704C39.9029 23.9681 39.903 23.9658 39.9032 23.9635C39.9622 23.2774 40 22.6995 40 22.3458C40 18.1457 36.583 14.7286 32.3828 14.7286ZM29.7624 15.9006H32.1595L31.8533 19.4159H29.4562L29.7624 15.9006ZM13.3601 33.4477C11.5462 33.4477 10.0706 31.9721 10.0706 30.1583C10.0706 28.3446 11.5463 26.8689 13.3601 26.8689C15.1738 26.8689 16.6494 28.3446 16.6494 30.1583C16.6494 31.9721 15.1738 33.4477 13.3601 33.4477ZM31.6014 33.4477C29.7876 33.4477 28.3121 31.9721 28.3121 30.1583C28.3121 28.3446 29.7877 26.8689 31.6014 26.8689C33.4152 26.8689 34.8908 28.3446 34.8908 30.1583C34.8908 31.9721 33.4152 33.4477 31.6014 33.4477ZM38.1144 29.5721H36.0233C35.7353 27.3881 33.8629 25.6967 31.6015 25.6967C29.3403 25.6967 27.4679 27.3882 27.18 29.5721H17.7816C17.4937 27.3881 15.6214 25.6967 13.3601 25.6967C11.0987 25.6967 9.22629 27.3882 8.93832 29.5721H6.97393L7.46604 24.4937H28.4767V24.494C28.477 24.494 28.4772 24.494 28.4775 24.494C28.4971 24.494 28.5166 24.4929 28.5358 24.4909C28.5394 24.4906 28.5429 24.4899 28.5465 24.4894C28.5618 24.4876 28.5771 24.4854 28.5921 24.4824C28.5985 24.4811 28.6049 24.4793 28.6113 24.4777C28.623 24.4749 28.6347 24.4722 28.6461 24.4688C28.6539 24.4664 28.6614 24.4636 28.6689 24.461C28.6788 24.4575 28.6886 24.4542 28.6982 24.4502C28.7064 24.4469 28.7143 24.4431 28.7222 24.4394C28.7309 24.4354 28.7396 24.4314 28.7479 24.427C28.7559 24.4228 28.7637 24.4183 28.7716 24.4138C28.7796 24.4091 28.7876 24.4043 28.7954 24.3993C28.803 24.3944 28.8102 24.3892 28.8175 24.3841C28.8252 24.3786 28.8327 24.373 28.8402 24.3671C28.8469 24.3617 28.8535 24.3562 28.8601 24.3505C28.8675 24.3441 28.8748 24.3375 28.8818 24.3307C28.8878 24.325 28.8937 24.3192 28.8995 24.3131C28.9065 24.3058 28.9133 24.2982 28.92 24.2905C28.9253 24.2844 28.9304 24.2783 28.9354 24.272C28.9419 24.2638 28.9481 24.2554 28.9542 24.2469C28.9588 24.2405 28.9632 24.2341 28.9676 24.2275C28.9733 24.2187 28.9788 24.2096 28.984 24.2004C28.988 24.1935 28.9921 24.1867 28.9957 24.1796C29.0006 24.1704 29.0048 24.161 29.0093 24.1516C29.0127 24.144 29.0162 24.1366 29.0193 24.1288C29.0232 24.1195 29.0264 24.1101 29.0297 24.1006C29.0326 24.0923 29.0357 24.0839 29.0382 24.0753C29.0408 24.0663 29.0429 24.057 29.0453 24.0477C29.0475 24.0384 29.05 24.0292 29.0518 24.0198C29.0536 24.0106 29.0547 24.0012 29.0561 23.9918C29.0575 23.9821 29.0592 23.9726 29.0601 23.9627C29.0603 23.9613 29.0606 23.96 29.0607 23.9586L29.3543 20.5875H32.3826C34.1779 20.5875 34.9876 21.5177 35.8447 22.5025C36.5519 23.3151 37.3416 24.2217 38.6837 24.4429C38.5133 26.2453 38.2377 28.559 38.1144 29.5721ZM38.7839 23.2687C37.9132 23.0912 37.3775 22.4791 36.7285 21.7334C35.9169 20.801 34.926 19.6631 33.0265 19.4511L33.3297 15.9708C36.4362 16.4302 38.8281 19.1137 38.8281 22.3459C38.8281 22.5656 38.8117 22.8846 38.7839 23.2687Z"/>
</mask>
<path d="M32.3828 14.7286H29.8645L30.6232 6.01689C30.6247 6.00111 30.6249 5.98556 30.625 5.97002C30.625 5.96869 30.6251 5.96744 30.6251 5.96611C30.6251 5.96588 30.6251 5.96572 30.6251 5.96549C30.6251 5.72838 30.4821 5.51939 30.2718 5.42853C30.27 5.42775 30.2683 5.42681 30.2665 5.42603C30.2535 5.42056 30.24 5.41587 30.2264 5.41134C30.2213 5.4097 30.2164 5.40767 30.2114 5.40611C30.2003 5.40275 30.1889 5.40009 30.1775 5.39736C30.1696 5.39548 30.1619 5.39322 30.1539 5.39166C30.1439 5.3897 30.1336 5.38845 30.1235 5.38697C30.1139 5.38556 30.1046 5.38392 30.095 5.38306C30.0933 5.38291 30.0918 5.38259 30.0902 5.38244C30.0799 5.3815 30.0697 5.38166 30.0595 5.38126C30.0526 5.38103 30.0459 5.38025 30.039 5.38025H30.0317C30.0311 5.38025 30.0304 5.38025 30.0299 5.38025H18.0477C17.7243 5.38025 17.4618 5.64275 17.4618 5.96619C17.4618 6.28885 17.7243 6.55213 18.0477 6.55213H29.4003L28.2343 19.9409C28.2341 19.9419 28.2341 19.9429 28.2339 19.9439L27.9397 23.3221H7.57956L7.92011 19.8066H11.7968C12.1204 19.8066 12.3827 19.5443 12.3827 19.2207C12.3827 18.8971 12.1204 18.6348 11.7968 18.6348H8.0337L8.75277 11.2132H14.9227C15.2464 11.2132 15.5087 10.9509 15.5087 10.6273C15.5087 10.3037 15.2464 10.0414 14.9227 10.0414H8.86636L9.20449 6.55213H15.704C16.0266 6.55213 16.2899 6.28885 16.2899 5.96619C16.2899 5.64275 16.0266 5.38025 15.704 5.38025H8.67269C8.67238 5.38025 8.67214 5.38033 8.67183 5.38033C8.3966 5.38025 8.15784 5.574 8.10011 5.8426C8.09972 5.84455 8.09902 5.84642 8.09863 5.84838C8.09566 5.86299 8.0937 5.87791 8.09175 5.89291C8.0912 5.89767 8.09019 5.9022 8.08972 5.90697C8.08964 5.90791 8.08941 5.90877 8.08933 5.9097L7.68901 10.0414H0.58594C0.262267 10.0414 0 10.3037 0 10.6273C0 10.9509 0.262267 11.2132 0.58594 11.2132H7.57542L6.85636 18.6348H4.7658C4.44213 18.6348 4.17986 18.8971 4.17986 19.2207C4.17986 19.5443 4.44213 19.8066 4.7658 19.8066H6.74284L6.35127 23.8474C6.3512 23.848 6.3512 23.8486 6.35112 23.8492L5.74573 30.0975C5.74565 30.0982 5.74557 30.099 5.74549 30.0996L5.74526 30.1019C5.74448 30.11 5.74455 30.118 5.74409 30.1261C5.74354 30.1369 5.74244 30.1475 5.74244 30.1584C5.74244 30.1589 5.74252 30.1593 5.74252 30.1599C5.74252 30.175 5.74362 30.1898 5.74471 30.2046C5.74518 30.2094 5.74502 30.2143 5.74557 30.2189C5.74713 30.2341 5.74971 30.249 5.75244 30.2639C5.75323 30.2682 5.75362 30.2727 5.75448 30.277C5.75674 30.2882 5.75994 30.2991 5.76291 30.3101C5.76494 30.3178 5.76659 30.3257 5.76893 30.3333C5.76963 30.3354 5.77057 30.3375 5.77119 30.3396C5.79955 30.4268 5.84768 30.5051 5.91049 30.569C5.91166 30.5702 5.9126 30.5715 5.91377 30.5726C5.92002 30.5789 5.92682 30.5845 5.93338 30.5904C5.97377 30.6275 6.0194 30.6589 6.06932 30.6835C6.07971 30.6886 6.08995 30.694 6.10057 30.6985C6.10377 30.6999 6.10721 30.7008 6.11049 30.7021C6.12518 30.7079 6.13995 30.7136 6.15518 30.7183C6.15659 30.7187 6.15791 30.7189 6.15932 30.7194C6.17666 30.7246 6.19416 30.7291 6.21206 30.7328C6.2144 30.7332 6.21682 30.7334 6.21909 30.7339C6.23612 30.7371 6.25323 30.7398 6.27065 30.7415C6.27104 30.7415 6.27135 30.7416 6.27174 30.7417C6.29096 30.7436 6.31002 30.7445 6.32893 30.7445C6.32917 30.7445 6.32948 30.7444 6.32979 30.7444H8.93824C9.22629 32.9282 11.0986 34.6197 13.3599 34.6197C15.6211 34.6197 17.4933 32.9282 17.7814 30.7444H27.1798C27.4679 32.9282 29.3401 34.6197 31.6014 34.6197C33.8626 34.6197 35.735 32.9282 36.0231 30.7444H38.6322C38.6326 30.7444 38.633 30.7445 38.6334 30.7445C38.653 30.7445 38.6722 30.7433 38.6912 30.7414C38.6947 30.7411 38.698 30.7404 38.7014 30.74C38.7166 30.7382 38.7318 30.7361 38.7466 30.7332C38.753 30.7319 38.7592 30.7302 38.7655 30.7287C38.777 30.7261 38.7886 30.7232 38.7998 30.7199C38.8075 30.7176 38.8149 30.715 38.8224 30.7124C38.832 30.7091 38.8416 30.7057 38.8511 30.7018C38.8592 30.6986 38.867 30.6951 38.8748 30.6916C38.8834 30.6876 38.892 30.6836 38.9004 30.6793C38.9084 30.6752 38.916 30.671 38.9237 30.6666C38.9317 30.6619 38.9397 30.6571 38.9476 30.6521C38.9549 30.6474 38.9623 30.6426 38.9693 30.6376C38.9773 30.6321 38.9848 30.6262 38.9926 30.6203C38.999 30.6152 39.0055 30.6102 39.0117 30.6049C39.0198 30.5981 39.0273 30.591 39.035 30.5837C39.0403 30.5786 39.0459 30.5736 39.051 30.5683C39.0591 30.56 39.0669 30.5513 39.0746 30.5425C39.0787 30.5377 39.083 30.5331 39.087 30.5282C39.0956 30.5176 39.1034 30.5067 39.1112 30.4957C39.1139 30.4918 39.1169 30.4882 39.1194 30.4843C39.129 30.47 39.138 30.4553 39.1462 30.4402C39.1469 30.4393 39.1475 30.4384 39.1479 30.4374C39.1567 30.4211 39.1648 30.4045 39.1721 30.3873C39.1741 30.3824 39.1757 30.3773 39.1777 30.3724C39.1824 30.3603 39.1871 30.3482 39.1911 30.3356C39.1937 30.3275 39.1955 30.3191 39.1978 30.3109C39.2004 30.3011 39.2031 30.2914 39.2053 30.2815C39.2073 30.2727 39.2085 30.2636 39.21 30.2546C39.2113 30.2468 39.213 30.239 39.2141 30.231C39.2389 30.0319 39.6977 26.3507 39.9027 23.9704C39.9029 23.9681 39.903 23.9658 39.9032 23.9635C39.9622 23.2774 40 22.6995 40 22.3458C40 18.1457 36.583 14.7286 32.3828 14.7286ZM29.7624 15.9006H32.1595L31.8533 19.4159H29.4562L29.7624 15.9006ZM13.3601 33.4477C11.5462 33.4477 10.0706 31.9721 10.0706 30.1583C10.0706 28.3446 11.5463 26.8689 13.3601 26.8689C15.1738 26.8689 16.6494 28.3446 16.6494 30.1583C16.6494 31.9721 15.1738 33.4477 13.3601 33.4477ZM31.6014 33.4477C29.7876 33.4477 28.3121 31.9721 28.3121 30.1583C28.3121 28.3446 29.7877 26.8689 31.6014 26.8689C33.4152 26.8689 34.8908 28.3446 34.8908 30.1583C34.8908 31.9721 33.4152 33.4477 31.6014 33.4477ZM38.1144 29.5721H36.0233C35.7353 27.3881 33.8629 25.6967 31.6015 25.6967C29.3403 25.6967 27.4679 27.3882 27.18 29.5721H17.7816C17.4937 27.3881 15.6214 25.6967 13.3601 25.6967C11.0987 25.6967 9.22629 27.3882 8.93832 29.5721H6.97393L7.46604 24.4937H28.4767V24.494C28.477 24.494 28.4772 24.494 28.4775 24.494C28.4971 24.494 28.5166 24.4929 28.5358 24.4909C28.5394 24.4906 28.5429 24.4899 28.5465 24.4894C28.5618 24.4876 28.5771 24.4854 28.5921 24.4824C28.5985 24.4811 28.6049 24.4793 28.6113 24.4777C28.623 24.4749 28.6347 24.4722 28.6461 24.4688C28.6539 24.4664 28.6614 24.4636 28.6689 24.461C28.6788 24.4575 28.6886 24.4542 28.6982 24.4502C28.7064 24.4469 28.7143 24.4431 28.7222 24.4394C28.7309 24.4354 28.7396 24.4314 28.7479 24.427C28.7559 24.4228 28.7637 24.4183 28.7716 24.4138C28.7796 24.4091 28.7876 24.4043 28.7954 24.3993C28.803 24.3944 28.8102 24.3892 28.8175 24.3841C28.8252 24.3786 28.8327 24.373 28.8402 24.3671C28.8469 24.3617 28.8535 24.3562 28.8601 24.3505C28.8675 24.3441 28.8748 24.3375 28.8818 24.3307C28.8878 24.325 28.8937 24.3192 28.8995 24.3131C28.9065 24.3058 28.9133 24.2982 28.92 24.2905C28.9253 24.2844 28.9304 24.2783 28.9354 24.272C28.9419 24.2638 28.9481 24.2554 28.9542 24.2469C28.9588 24.2405 28.9632 24.2341 28.9676 24.2275C28.9733 24.2187 28.9788 24.2096 28.984 24.2004C28.988 24.1935 28.9921 24.1867 28.9957 24.1796C29.0006 24.1704 29.0048 24.161 29.0093 24.1516C29.0127 24.144 29.0162 24.1366 29.0193 24.1288C29.0232 24.1195 29.0264 24.1101 29.0297 24.1006C29.0326 24.0923 29.0357 24.0839 29.0382 24.0753C29.0408 24.0663 29.0429 24.057 29.0453 24.0477C29.0475 24.0384 29.05 24.0292 29.0518 24.0198C29.0536 24.0106 29.0547 24.0012 29.0561 23.9918C29.0575 23.9821 29.0592 23.9726 29.0601 23.9627C29.0603 23.9613 29.0606 23.96 29.0607 23.9586L29.3543 20.5875H32.3826C34.1779 20.5875 34.9876 21.5177 35.8447 22.5025C36.5519 23.3151 37.3416 24.2217 38.6837 24.4429C38.5133 26.2453 38.2377 28.559 38.1144 29.5721ZM38.7839 23.2687C37.9132 23.0912 37.3775 22.4791 36.7285 21.7334C35.9169 20.801 34.926 19.6631 33.0265 19.4511L33.3297 15.9708C36.4362 16.4302 38.8281 19.1137 38.8281 22.3459C38.8281 22.5656 38.8117 22.8846 38.7839 23.2687Z" fill="#64B3FB"/>
<path d="M32.3828 14.7286H29.8645L30.6232 6.01689C30.6247 6.00111 30.6249 5.98556 30.625 5.97002C30.625 5.96869 30.6251 5.96744 30.6251 5.96611C30.6251 5.96588 30.6251 5.96572 30.6251 5.96549C30.6251 5.72838 30.4821 5.51939 30.2718 5.42853C30.27 5.42775 30.2683 5.42681 30.2665 5.42603C30.2535 5.42056 30.24 5.41587 30.2264 5.41134C30.2213 5.4097 30.2164 5.40767 30.2114 5.40611C30.2003 5.40275 30.1889 5.40009 30.1775 5.39736C30.1696 5.39548 30.1619 5.39322 30.1539 5.39166C30.1439 5.3897 30.1336 5.38845 30.1235 5.38697C30.1139 5.38556 30.1046 5.38392 30.095 5.38306C30.0933 5.38291 30.0918 5.38259 30.0902 5.38244C30.0799 5.3815 30.0697 5.38166 30.0595 5.38126C30.0526 5.38103 30.0459 5.38025 30.039 5.38025H30.0317C30.0311 5.38025 30.0304 5.38025 30.0299 5.38025H18.0477C17.7243 5.38025 17.4618 5.64275 17.4618 5.96619C17.4618 6.28885 17.7243 6.55213 18.0477 6.55213H29.4003L28.2343 19.9409C28.2341 19.9419 28.2341 19.9429 28.2339 19.9439L27.9397 23.3221H7.57956L7.92011 19.8066H11.7968C12.1204 19.8066 12.3827 19.5443 12.3827 19.2207C12.3827 18.8971 12.1204 18.6348 11.7968 18.6348H8.0337L8.75277 11.2132H14.9227C15.2464 11.2132 15.5087 10.9509 15.5087 10.6273C15.5087 10.3037 15.2464 10.0414 14.9227 10.0414H8.86636L9.20449 6.55213H15.704C16.0266 6.55213 16.2899 6.28885 16.2899 5.96619C16.2899 5.64275 16.0266 5.38025 15.704 5.38025H8.67269C8.67238 5.38025 8.67214 5.38033 8.67183 5.38033C8.3966 5.38025 8.15784 5.574 8.10011 5.8426C8.09972 5.84455 8.09902 5.84642 8.09863 5.84838C8.09566 5.86299 8.0937 5.87791 8.09175 5.89291C8.0912 5.89767 8.09019 5.9022 8.08972 5.90697C8.08964 5.90791 8.08941 5.90877 8.08933 5.9097L7.68901 10.0414H0.58594C0.262267 10.0414 0 10.3037 0 10.6273C0 10.9509 0.262267 11.2132 0.58594 11.2132H7.57542L6.85636 18.6348H4.7658C4.44213 18.6348 4.17986 18.8971 4.17986 19.2207C4.17986 19.5443 4.44213 19.8066 4.7658 19.8066H6.74284L6.35127 23.8474C6.3512 23.848 6.3512 23.8486 6.35112 23.8492L5.74573 30.0975C5.74565 30.0982 5.74557 30.099 5.74549 30.0996L5.74526 30.1019C5.74448 30.11 5.74455 30.118 5.74409 30.1261C5.74354 30.1369 5.74244 30.1475 5.74244 30.1584C5.74244 30.1589 5.74252 30.1593 5.74252 30.1599C5.74252 30.175 5.74362 30.1898 5.74471 30.2046C5.74518 30.2094 5.74502 30.2143 5.74557 30.2189C5.74713 30.2341 5.74971 30.249 5.75244 30.2639C5.75323 30.2682 5.75362 30.2727 5.75448 30.277C5.75674 30.2882 5.75994 30.2991 5.76291 30.3101C5.76494 30.3178 5.76659 30.3257 5.76893 30.3333C5.76963 30.3354 5.77057 30.3375 5.77119 30.3396C5.79955 30.4268 5.84768 30.5051 5.91049 30.569C5.91166 30.5702 5.9126 30.5715 5.91377 30.5726C5.92002 30.5789 5.92682 30.5845 5.93338 30.5904C5.97377 30.6275 6.0194 30.6589 6.06932 30.6835C6.07971 30.6886 6.08995 30.694 6.10057 30.6985C6.10377 30.6999 6.10721 30.7008 6.11049 30.7021C6.12518 30.7079 6.13995 30.7136 6.15518 30.7183C6.15659 30.7187 6.15791 30.7189 6.15932 30.7194C6.17666 30.7246 6.19416 30.7291 6.21206 30.7328C6.2144 30.7332 6.21682 30.7334 6.21909 30.7339C6.23612 30.7371 6.25323 30.7398 6.27065 30.7415C6.27104 30.7415 6.27135 30.7416 6.27174 30.7417C6.29096 30.7436 6.31002 30.7445 6.32893 30.7445C6.32917 30.7445 6.32948 30.7444 6.32979 30.7444H8.93824C9.22629 32.9282 11.0986 34.6197 13.3599 34.6197C15.6211 34.6197 17.4933 32.9282 17.7814 30.7444H27.1798C27.4679 32.9282 29.3401 34.6197 31.6014 34.6197C33.8626 34.6197 35.735 32.9282 36.0231 30.7444H38.6322C38.6326 30.7444 38.633 30.7445 38.6334 30.7445C38.653 30.7445 38.6722 30.7433 38.6912 30.7414C38.6947 30.7411 38.698 30.7404 38.7014 30.74C38.7166 30.7382 38.7318 30.7361 38.7466 30.7332C38.753 30.7319 38.7592 30.7302 38.7655 30.7287C38.777 30.7261 38.7886 30.7232 38.7998 30.7199C38.8075 30.7176 38.8149 30.715 38.8224 30.7124C38.832 30.7091 38.8416 30.7057 38.8511 30.7018C38.8592 30.6986 38.867 30.6951 38.8748 30.6916C38.8834 30.6876 38.892 30.6836 38.9004 30.6793C38.9084 30.6752 38.916 30.671 38.9237 30.6666C38.9317 30.6619 38.9397 30.6571 38.9476 30.6521C38.9549 30.6474 38.9623 30.6426 38.9693 30.6376C38.9773 30.6321 38.9848 30.6262 38.9926 30.6203C38.999 30.6152 39.0055 30.6102 39.0117 30.6049C39.0198 30.5981 39.0273 30.591 39.035 30.5837C39.0403 30.5786 39.0459 30.5736 39.051 30.5683C39.0591 30.56 39.0669 30.5513 39.0746 30.5425C39.0787 30.5377 39.083 30.5331 39.087 30.5282C39.0956 30.5176 39.1034 30.5067 39.1112 30.4957C39.1139 30.4918 39.1169 30.4882 39.1194 30.4843C39.129 30.47 39.138 30.4553 39.1462 30.4402C39.1469 30.4393 39.1475 30.4384 39.1479 30.4374C39.1567 30.4211 39.1648 30.4045 39.1721 30.3873C39.1741 30.3824 39.1757 30.3773 39.1777 30.3724C39.1824 30.3603 39.1871 30.3482 39.1911 30.3356C39.1937 30.3275 39.1955 30.3191 39.1978 30.3109C39.2004 30.3011 39.2031 30.2914 39.2053 30.2815C39.2073 30.2727 39.2085 30.2636 39.21 30.2546C39.2113 30.2468 39.213 30.239 39.2141 30.231C39.2389 30.0319 39.6977 26.3507 39.9027 23.9704C39.9029 23.9681 39.903 23.9658 39.9032 23.9635C39.9622 23.2774 40 22.6995 40 22.3458C40 18.1457 36.583 14.7286 32.3828 14.7286ZM29.7624 15.9006H32.1595L31.8533 19.4159H29.4562L29.7624 15.9006ZM13.3601 33.4477C11.5462 33.4477 10.0706 31.9721 10.0706 30.1583C10.0706 28.3446 11.5463 26.8689 13.3601 26.8689C15.1738 26.8689 16.6494 28.3446 16.6494 30.1583C16.6494 31.9721 15.1738 33.4477 13.3601 33.4477ZM31.6014 33.4477C29.7876 33.4477 28.3121 31.9721 28.3121 30.1583C28.3121 28.3446 29.7877 26.8689 31.6014 26.8689C33.4152 26.8689 34.8908 28.3446 34.8908 30.1583C34.8908 31.9721 33.4152 33.4477 31.6014 33.4477ZM38.1144 29.5721H36.0233C35.7353 27.3881 33.8629 25.6967 31.6015 25.6967C29.3403 25.6967 27.4679 27.3882 27.18 29.5721H17.7816C17.4937 27.3881 15.6214 25.6967 13.3601 25.6967C11.0987 25.6967 9.22629 27.3882 8.93832 29.5721H6.97393L7.46604 24.4937H28.4767V24.494C28.477 24.494 28.4772 24.494 28.4775 24.494C28.4971 24.494 28.5166 24.4929 28.5358 24.4909C28.5394 24.4906 28.5429 24.4899 28.5465 24.4894C28.5618 24.4876 28.5771 24.4854 28.5921 24.4824C28.5985 24.4811 28.6049 24.4793 28.6113 24.4777C28.623 24.4749 28.6347 24.4722 28.6461 24.4688C28.6539 24.4664 28.6614 24.4636 28.6689 24.461C28.6788 24.4575 28.6886 24.4542 28.6982 24.4502C28.7064 24.4469 28.7143 24.4431 28.7222 24.4394C28.7309 24.4354 28.7396 24.4314 28.7479 24.427C28.7559 24.4228 28.7637 24.4183 28.7716 24.4138C28.7796 24.4091 28.7876 24.4043 28.7954 24.3993C28.803 24.3944 28.8102 24.3892 28.8175 24.3841C28.8252 24.3786 28.8327 24.373 28.8402 24.3671C28.8469 24.3617 28.8535 24.3562 28.8601 24.3505C28.8675 24.3441 28.8748 24.3375 28.8818 24.3307C28.8878 24.325 28.8937 24.3192 28.8995 24.3131C28.9065 24.3058 28.9133 24.2982 28.92 24.2905C28.9253 24.2844 28.9304 24.2783 28.9354 24.272C28.9419 24.2638 28.9481 24.2554 28.9542 24.2469C28.9588 24.2405 28.9632 24.2341 28.9676 24.2275C28.9733 24.2187 28.9788 24.2096 28.984 24.2004C28.988 24.1935 28.9921 24.1867 28.9957 24.1796C29.0006 24.1704 29.0048 24.161 29.0093 24.1516C29.0127 24.144 29.0162 24.1366 29.0193 24.1288C29.0232 24.1195 29.0264 24.1101 29.0297 24.1006C29.0326 24.0923 29.0357 24.0839 29.0382 24.0753C29.0408 24.0663 29.0429 24.057 29.0453 24.0477C29.0475 24.0384 29.05 24.0292 29.0518 24.0198C29.0536 24.0106 29.0547 24.0012 29.0561 23.9918C29.0575 23.9821 29.0592 23.9726 29.0601 23.9627C29.0603 23.9613 29.0606 23.96 29.0607 23.9586L29.3543 20.5875H32.3826C34.1779 20.5875 34.9876 21.5177 35.8447 22.5025C36.5519 23.3151 37.3416 24.2217 38.6837 24.4429C38.5133 26.2453 38.2377 28.559 38.1144 29.5721ZM38.7839 23.2687C37.9132 23.0912 37.3775 22.4791 36.7285 21.7334C35.9169 20.801 34.926 19.6631 33.0265 19.4511L33.3297 15.9708C36.4362 16.4302 38.8281 19.1137 38.8281 22.3459C38.8281 22.5656 38.8117 22.8846 38.7839 23.2687Z" stroke="#64B3FB" stroke-width="0.2" mask="url(#path-1-outside-1_1_539)"/>
<path d="M13.3601 27.9598C12.1478 27.9598 11.1616 28.9459 11.1616 30.1582C11.1616 31.3705 12.1478 32.3567 13.3601 32.3567C14.5723 32.3567 15.5585 31.3705 15.5585 30.1582C15.5585 28.946 14.5723 27.9598 13.3601 27.9598ZM13.3601 31.0848C12.8492 31.0848 12.4335 30.6691 12.4335 30.1582C12.4335 29.6473 12.8492 29.2316 13.3601 29.2316C13.871 29.2316 14.2866 29.6473 14.2866 30.1582C14.2866 30.6691 13.8709 31.0848 13.3601 31.0848Z" fill="#64B3FB" stroke="#64B3FB" stroke-width="0.1"/>
<path d="M31.6014 27.9598C30.3892 27.9598 29.4029 28.9459 29.4029 30.1582C29.4029 31.3705 30.3892 32.3567 31.6014 32.3567C32.8136 32.3567 33.7998 31.3705 33.7998 30.1582C33.7998 28.946 32.8136 27.9598 31.6014 27.9598ZM31.6014 31.0848C31.0905 31.0848 30.6748 30.6691 30.6748 30.1582C30.6748 29.6473 31.0905 29.2316 31.6014 29.2316C32.1123 29.2316 32.528 29.6473 32.528 30.1582C32.528 30.6691 32.1123 31.0848 31.6014 31.0848Z" fill="#64B3FB" stroke="#64B3FB" stroke-width="0.1"/>
<path d="M5.54687 14.1454H2.68233C2.33104 14.1454 2.04639 14.4302 2.04639 14.7814C2.04639 15.1326 2.33104 15.4173 2.68233 15.4173H5.54687C5.89816 15.4173 6.18281 15.1326 6.18281 14.7814C6.18281 14.4302 5.89816 14.1454 5.54687 14.1454Z" fill="#64B3FB" stroke="#64B3FB" stroke-width="0.1"/>
</g>
<defs>
<clipPath id="clip0_1_539">
<rect width="40" height="40" fill="white"/>
</clipPath>
</defs>
</svg>
