<svg width="40" height="40" viewBox="0 0 40 40" fill="none" xmlns="http://www.w3.org/2000/svg">
<path d="M36.2364 22.991C36.2364 22.1911 35.8853 21.4655 35.3232 20.961C36.2032 20.4972 36.8032 19.5843 36.8032 18.5364C36.8032 17.0205 35.5478 15.7872 34.0047 15.7872H26.0341V10.1854C26.0341 8.14982 25.4377 6.68178 24.2614 5.82188C22.3908 4.45467 19.7919 5.19845 19.6822 5.23086C19.4574 5.29707 19.3035 5.50031 19.3035 5.7308V12.7889L14.0932 19.3034C13.9304 18.5681 13.2631 18.0156 12.4665 18.0156H5.66501C4.74698 18.0157 4.00006 18.7494 4.00006 19.6513V21.3218C4.00006 21.6101 4.23789 21.8438 4.53145 21.8438C4.82495 21.8438 5.06283 21.6101 5.06283 21.3218V19.6513C5.06283 19.3251 5.33301 19.0597 5.66508 19.0597H12.4666C12.7987 19.0597 13.0688 19.3251 13.0688 19.6513V34.1286C13.0688 34.4549 13.3642 33.6091 13.0322 33.6091H6.23059C5.89852 33.6091 5.62834 33.3437 5.62834 33.0174L5.06277 23.549C5.06277 23.2608 4.82495 23.027 4.53138 23.027C4.23789 23.027 4 23.2607 4 23.549L4.56557 33.0173C4.56557 33.9192 5.31248 34.653 6.23052 34.653H13.032C13.9501 34.653 14.4631 34.6842 14.697 34.6842L14.4631 34.6792C14.4631 34.6792 16.6894 34.5581 16.7632 34.5943C16.837 34.6306 16.9257 34.5943 17.0082 34.5943C17.0907 34.5943 27.2031 34.6495 27.2031 34.6495C27.4966 34.6495 27.7541 34.8388 27.7541 33.9948C27.7541 33.7066 27.4966 33.6054 27.2031 33.6054L17.0082 33.717H14.1314V20.9455L20.2526 13.2921C20.3262 13.2001 20.3662 13.0865 20.3662 12.9696V6.14559C21.0556 6.0175 22.5441 5.86808 23.6269 6.65944C24.5191 7.31157 24.9714 8.49783 24.9714 10.1853V16.3092C24.9714 16.5975 25.2092 16.8312 25.5028 16.8312H34.0047C34.9619 16.8312 35.7405 17.5962 35.7405 18.5365C35.7405 19.4768 34.9619 20.2418 34.0047 20.2418C33.8981 20.2418 29.4703 20.2418 29.4703 20.2418C29.1768 20.2418 28.939 20.4755 28.939 20.7638C28.939 21.0521 29.1768 21.2858 29.4703 21.2858C29.4703 21.2858 33.5278 21.2884 33.5465 21.2896C34.459 21.3447 35.1737 22.0922 35.1737 22.9911C35.1737 23.9314 34.3951 24.6964 33.4379 24.6964C33.3683 24.6964 29.4703 24.6964 29.4703 24.6964C29.1768 24.6964 28.939 24.9301 28.939 25.2184C28.939 25.5067 29.1768 25.7404 29.4703 25.7404H33.0176C33.0403 25.7463 33.0635 25.7513 33.0874 25.7542C33.9537 25.8598 34.6069 26.5869 34.6069 27.4457C34.6069 28.386 33.8283 29.151 32.8711 29.151C32.8345 29.151 29.4703 29.151 29.4703 29.151C29.1768 29.151 28.939 29.3847 28.939 29.673C28.939 29.9613 29.1768 30.195 29.4703 30.195H32.5246C32.5572 30.2081 32.5915 30.2185 32.6274 30.2251C33.446 30.3763 34.0401 31.0808 34.0401 31.9003C34.0401 32.8406 33.2615 33.6056 32.3043 33.6056H29.4703C29.1768 33.6056 28.939 33.8393 28.939 34.1276C28.939 34.4159 29.1768 34.6496 29.4703 34.6496H32.3043C33.8474 34.6496 35.1028 33.4163 35.1028 31.9004C35.1028 31.105 34.7554 30.3766 34.1909 29.8697C35.0703 29.4058 35.6696 28.4932 35.6696 27.4458C35.6696 26.6483 35.3202 25.9214 34.7569 25.4155C35.6368 24.9515 36.2364 24.0388 36.2364 22.991Z" fill="#64B3FB" stroke="#64B3FB" stroke-width="0.1"/>
<path d="M10.1993 30.2157C9.25444 30.2157 8.4843 30.9711 8.4843 31.9014C8.4843 32.8317 9.25444 33.5871 10.1993 33.5871C11.1441 33.5871 11.9142 32.8317 11.9142 31.9014C11.9142 30.9711 11.1441 30.2157 10.1993 30.2157ZM10.1993 32.4431C9.89396 32.4431 9.64701 32.1992 9.64701 31.9014C9.64701 31.6036 9.89389 31.3598 10.1993 31.3598C10.5046 31.3598 10.7515 31.6036 10.7515 31.9014C10.7515 32.1992 10.5045 32.4431 10.1993 32.4431Z" fill="#64B3FB" stroke="#64B3FB" stroke-width="0.1"/>
</svg>
